<?xml version="1.0" encoding="UTF-8"?>
<svg id="Layer_2" data-name="Layer 2" xmlns="http://www.w3.org/2000/svg" viewBox="0 0 217.6 217.61">
  <defs>
    <style>
      .cls-1 {
        fill: #07222d;
      }
    </style>
  </defs>
  <g id="Layer_1-2" data-name="Layer 1">
    <path class="cls-1" d="M176.77,91.72c7.17-14.87,14.55-29.95,21.69-44.53,3.31-6.75,6.6-13.48,9.9-20.23.66-1.36,1.33-2.72,2.01-4.07,2.11-4.26,4.28-8.67,6.23-13.12,1.29-2.93,1.34-5.22.2-6.98-1.16-1.76-3.29-2.63-6.56-2.64-1.98-.01-3.96.01-5.94.04-3.64.06-7.41.12-11.05-.12-11.96-.75-20.59,4.62-26.41,16.43-1.29,2.62-2.57,5.24-3.86,7.86H60.87c-1.21-2.7-2.43-5.4-3.64-8.13C52.2,4.98,43.39-.45,31.02.1c-1.68.07-3.41.06-5.09.03-.81,0-1.62-.01-2.43-.01h-6.99c-.52,0-1.04-.01-1.57,0C10.69.11,7.57.57,6.11,2.86c-1.47,2.28-.58,5.36,1.21,9.28.19.42.4.85.61,1.27.14.3.29.59.43.9,3.28,6.98,6.55,13.96,9.8,20.95,7.57,16.23,15.42,33.02,23.33,49.41,6.44,13.35,6.5,26.09.16,38.94-6.08,12.34-12.15,24.95-18,37.15-2.88,5.98-5.75,11.96-8.64,17.93-1.72,3.55-3.45,7.11-5.19,10.66-2.63,5.4-5.27,10.81-7.86,16.23-1.57,3.29-2.82,6.69-1.23,9.2,1.56,2.49,5.06,2.83,8.58,2.83h5.37c3.6,0,7.25-.01,10.87-.13,12.15-.38,20.85-6.05,25.82-16.85.52-1.11,1.05-2.23,1.59-3.34l8.6-17.95c6.56-13.7,13.12-27.41,19.71-41.11,3.79-7.87,9.94-11.5,18.8-11.07,5.61.26,11.28.14,16.76.01l2.41-.06c6.05-.16,10.27,1.99,12.96,6.49,3.12,5.22,5.63,9.94,7.73,14.42,4.19,9.03,8.39,18.23,12.45,27.15,3.8,8.34,7.73,16.96,11.65,25.43,4.8,10.33,12.38,15.85,22.57,16.37,7.38.39,14.1.58,20.53.58h.01c2.63,0,5.84-.3,7.37-2.7,1.56-2.41.46-5.56-.65-8.02-2.64-5.81-5.29-11.6-7.93-17.4-9.26-20.31-18.83-41.31-28.09-62.03-2.73-6.13-4.72-11.96-5.92-17.37-1.29-5.79,1.31-11.11,4.06-16.73l.78-1.59h0ZM134.69,79.57c-2.86,4.26-6.99,6.65-12.28,7.09-5.79.49-12.53,1-19.1.92-9.23-.12-14.98-3.35-18.1-10.16-.78-1.7-1.65-3.4-2.47-5.03-.87-1.69-1.75-3.44-2.54-5.17-1.69-3.74-3.41-7.54-5.13-11.37h72.42c-2.14,4.32-4.28,8.65-6.42,12.95-1.68,3.35-3.76,6.88-6.36,10.76h-.01Z"/>
  </g>
</svg>