<?xml version="1.0" encoding="UTF-8"?>
<svg id="Layer_2" data-name="Layer 2" xmlns="http://www.w3.org/2000/svg" viewBox="0 0 1658.14 222.16">
  <defs>
    <style>
      .cls-1 {
        fill: #07222d;
      }
    </style>
  </defs>
  <g id="Layer_1-2" data-name="Layer 1">
    <g id="Layer_1-2" data-name="Layer 1-2">
      <g>
        <path class="cls-1" d="M176.77,96.27c7.17-14.87,14.55-29.95,21.69-44.53,3.31-6.75,6.6-13.48,9.9-20.23.66-1.36,1.33-2.72,2.01-4.07,2.11-4.26,4.28-8.67,6.23-13.12,1.29-2.93,1.34-5.22.2-6.98-1.16-1.76-3.29-2.63-6.56-2.64-1.98-.01-3.96.01-5.94.04-3.64.06-7.41.12-11.05-.12-11.96-.75-20.59,4.62-26.41,16.43-1.29,2.62-2.57,5.24-3.86,7.86H60.87c-1.21-2.7-2.43-5.4-3.64-8.13-5.03-11.24-13.84-16.67-26.21-16.12-1.68.07-3.41.06-5.09.03-.81,0-1.62-.01-2.43-.01h-6.99c-.52,0-1.04-.01-1.57,0-4.25,0-7.37.46-8.83,2.75-1.47,2.28-.58,5.36,1.21,9.28.19.42.4.85.61,1.27.14.3.29.59.43.9,3.28,6.98,6.55,13.96,9.8,20.95,7.57,16.23,15.42,33.02,23.33,49.41,6.44,13.35,6.5,26.09.16,38.94-6.08,12.34-12.15,24.95-18,37.15-2.88,5.98-5.75,11.96-8.64,17.93-1.72,3.55-3.45,7.11-5.19,10.66-2.63,5.4-5.27,10.81-7.86,16.23-1.57,3.29-2.82,6.69-1.23,9.2,1.56,2.49,5.06,2.83,8.58,2.83h5.37c3.6,0,7.25-.01,10.87-.13,12.15-.38,20.85-6.05,25.82-16.85.52-1.11,1.05-2.23,1.59-3.34l8.6-17.95c6.56-13.7,13.12-27.41,19.71-41.11,3.79-7.87,9.94-11.5,18.8-11.07,5.61.26,11.28.14,16.76.01l2.41-.06c6.05-.16,10.27,1.99,12.96,6.49,3.12,5.22,5.63,9.94,7.73,14.42,4.19,9.03,8.39,18.23,12.45,27.15,3.8,8.34,7.73,16.96,11.65,25.43,4.8,10.33,12.38,15.85,22.57,16.37,7.38.39,14.1.58,20.53.58h.01c2.63,0,5.84-.3,7.37-2.7,1.56-2.41.46-5.56-.65-8.02-2.64-5.81-5.29-11.6-7.93-17.4-9.26-20.31-18.83-41.31-28.09-62.03-2.73-6.13-4.72-11.96-5.92-17.37-1.29-5.79,1.31-11.11,4.06-16.73l.78-1.59h0ZM134.69,84.12c-2.86,4.26-6.99,6.65-12.28,7.09-5.79.49-12.53,1-19.1.92-9.23-.12-14.98-3.35-18.1-10.16-.78-1.7-1.65-3.4-2.47-5.03-.87-1.69-1.75-3.44-2.54-5.17-1.69-3.74-3.41-7.54-5.13-11.37h72.42c-2.14,4.32-4.28,8.65-6.42,12.95-1.68,3.35-3.76,6.88-6.36,10.76h-.01Z"/>
        <path class="cls-1" d="M301.89,47.86c1.36-.17,2.7-.27,3.99-.19l15.14.09c11.1.06,23.31.13,32.26.2l31.14.25c2.24,0,4.49,0,6.73.07,1.27.03,2.54.1,3.81.17l.81.04c2.07.12,4.42.25,6.78.25,6.95,0,13.25-5.65,13.48-12.08.4-9.25-2.73-17.8-9.3-25.42-3.74-4.36-8.12-6.78-13-7.2h0c-1.88-.16-3.76-.32-5.78-.52h-.27c-5.3-.52-10.78-1.03-16.36-1.11-19-.35-43.19-.45-58.85-.27-6.94.07-13.8.32-21.43.59h-.48c-7.25.27-14.75.55-22.15.59-5.13.01-9.42,1.65-12.43,4.7-3.03,3.06-4.55,7.24-4.51,12.41.14,21.79.13,43.59.1,67.78v47.81c-.01,23.19-.01,45.34,0,68.53,0,1.47.06,3.44.46,5.53,1.31,6.27,6.05,10.16,12.4,10.16,8.18-.1,15.43-.27,22.16-.56,7.08-.32,13.47-6.1,14.54-13.16.46-2.99.71-5.92.72-8.73.03-16.14.03-31.25.03-47.39v-10.58l35.37-.22c15.11-.09,31.87-.17,44.89-.3,6.68-.06,12.35-2.62,16.37-7.35,5.03-5.92,8.5-12.48,10.35-19.52,1.1-4.13.65-8.19-1.27-11.44-1.76-2.99-4.67-5.13-8.18-6.01-1.91-.49-3.73-.51-5.2-.51h-19.19c-21.76-.03-51.02-.01-73.17.04.04-9.04.04-18.18.04-27.09v-19.55h-.01Z"/>
        <path class="cls-1" d="M1268.12,78.25h0c-.65-14.78-5.14-29.3-13.73-44.4-5.24-9.23-12.99-16.27-23-20.94-9.88-4.62-20.57-7.47-31.82-8.47-12.51-1.11-25.59-1.79-39.98-2.11-9.17-.22-18.48.01-27.48.25-2.56.06-5.11.13-7.69.17-11.47.25-23.26.62-33.72.95-1.37.06-2.86.43-4.42,1.11-7.05,3.12-7.05,9.94-7.05,13.6v181.35c0,1.62,0,3.29.23,5.01.85,6.81,4.75,11.07,11.28,12.31,3.81.74,6.98,1.1,9.97,1.14,16.36.2,35.7.4,55.3.4,18.06,0,34.63-1.43,50.63-4.35,24.01-4.38,40.76-17.25,51.18-39.36,7.17-15.16,10.89-32.28,11.75-53.86.39-10.32-.23-20.73-.81-30.8-.23-4-.46-8-.64-12.01h0ZM1223.11,117.58c-.58,14.19-2.53,25.36-6.14,35.17-5.52,15.03-15.59,22.6-30.8,23.16-18.78.68-37.23,1.16-56.06,1.63-1.79.04-4,0-5.59-.58-.25-.35-.53-1.04-.55-1.36-.14-12.5-.13-25.24-.12-37.57V45.45c0-.45,0-1.29.04-1.97.65-.04,1.44-.06,1.92-.07,4.05-.07,8.09-.19,12.14-.3,8.63-.23,17.54-.48,26.27-.36,13.97.16,24.61,1.3,34.49,3.7,9.16,2.23,15,8.09,18.94,19.03,6.3,17.47,6.14,36.04,5.49,52.07l-.03.03Z"/>
        <path class="cls-1" d="M1454.87,200.95c-1.68-5.1-3.7-10.13-5.65-15-1.05-2.63-2.11-5.27-3.12-7.93-1.92-5.03-3.81-10.07-5.71-15.11-3.8-10.1-7.72-20.53-11.8-30.73-2.24-5.59-1.56-9.75,2.4-14.87,11.01-14.26,16.67-28.33,17.28-43.06.06-1.24.1-2.5.16-3.74.52-11.33,1.05-23.05-2.67-34.66-4.85-15.14-14.84-25.05-28.85-28.68-9.84-2.56-20.3-3.61-29.33-4.39-8.68-.74-18.08-.98-29.56-.81-10.23.17-20.6.49-30.65.81-9.19.29-18.68.58-28,.75-11.37.19-15.03,3.77-15.03,14.69,0,61.96,0,123.91.03,185.85v.46c0,1.31,0,2.66.16,4.1.74,6.31,4.16,9.42,10.5,9.52,4.26.06,8.57.04,12.73.03h5.45c11.63,0,15.55-3.89,15.55-15.42.01-13.73,0-27.47,0-41.21v-22.53c3.68,0,7.34,0,10.97-.01,12.27-.03,23.85-.06,35.63.09,5.55.06,9.33,2.96,11.91,9.12,1.37,3.27,2.73,6.72,4.18,10.55,1.79,4.72,3.55,9.43,5.32,14.16,3.22,8.61,6.56,17.53,9.96,26.22,4.07,10.52,11.17,16.6,21.07,18.08,3.45.52,6.91.65,10.26.77,1.56.06,3.12.12,4.68.22.55.03,1.08.06,1.6.06,4.48,0,7.76-1.31,9.8-3.93,2.43-3.12,2.67-7.48.78-13.34h0v-.06ZM1398.92,88.94h0c-3.29,6.96-7.73,10.07-14.39,10.07h-.06c-9.71-.01-19.42-.03-29.19-.03h-26.92c-.01-.35-.03-.68-.03-1.01v-17.17c0-12.32.03-25.07-.1-37.62,0-.74.06-1.17.1-1.39.2-.04.61-.09,1.2-.09,6.47.03,12.93.01,19.4,0,9.8,0,19.92-.03,29.87.09,4.8.07,9.62.92,13.31,1.66,5.26,1.05,8.55,4.1,9.78,9.09,3.32,13.23,2.34,25.14-3.01,36.41h.03Z"/>
        <path class="cls-1" d="M1657.61,7.8h0c-.85-2.83-3.58-7.6-12.47-6.86-2.96.23-6.01.25-9.12,0-14.26-.77-25.44,5.32-33.33,18.39-13.42,22.22-27.18,44.4-40.46,65.86-1.39,2.27-3.15,4.64-5.2,7.02-6.53-9.9-12.77-20.03-18.12-28.77-5.37-8.77-10.78-17.73-16.02-26.41-3.87-6.43-7.76-12.87-11.67-19.3-3.99-6.53-10.71-15.29-23.18-15.94l-1.81-.09c-6.85-.33-13.93-.69-20.99-.69-3.67.03-6.99,1.82-9.1,4.91-2.24,3.31-2.73,7.5-1.29,11.21.71,1.88,1.7,3.44,2.57,4.8l16.38,26.25c16.6,26.61,33.72,54.05,50.7,80.96,4.62,7.34,6.95,14.84,7.14,22.94.13,5.84.1,11.83.07,17.64l-.03,11.66.22,1.78v2.66c-.01,6.34-.03,12.9.01,19.38.16,12.67,9.25,13.9,12.02,13.96,3.7.1,7.46.16,11.24.16,4.31,0,8.65-.07,13-.2,6.23-.2,10.84-4.44,11.78-10.81.29-2.05.45-4.32.48-6.94l.04-12.53c.06-10.75.13-21.88-.12-32.96-.23-10.35,2.57-19.88,8.54-29.11,9.17-14.22,18.26-28.81,27.06-42.91l19.46-31.08c6.82-10.85,13.84-22.03,20.62-33.16,2.02-3.34,2.64-8.09,1.56-11.85v.03Z"/>
        <path class="cls-1" d="M627.88,79.59c-1.3-9.57-2.64-19.45-5.39-28.98-6.23-21.64-19.23-36.08-38.66-42.9-11.89-4.16-24.94-6.55-39.89-7.25-20.86-1-43.16-.94-64.86,6.24-19.13,6.33-32.58,17.15-41.12,33.1-8.84,16.51-13.35,35.04-14.64,60.08-.39,7.48,0,14.98.38,22.24.14,2.85.29,5.68.39,8.51.43,12.37,2.96,25.14,7.51,37.96,7.04,19.84,20.49,33.64,39.95,41.01,15.24,5.78,31.58,8.26,41.83,8.26.58,0,1.16,0,1.69-.03,25.33-.27,42.23-1.43,58.98-6.68,13.96-4.38,24.01-10.52,31.64-19.33,10.48-12.11,15.29-26.86,18.97-39.72,3.35-11.72,3.89-23.46,4.41-34.84.17-3.73.35-7.59.62-11.34.62-8.48-.52-16.89-1.63-25.01l-.17-1.31h0ZM580.39,117.3c-.9,11.17-2.3,23.02-6.49,33.91-4.36,11.33-12.35,17.8-23.77,19.25-9.87,1.24-22.83,2.64-35.54,2.43-8.61-.13-16.86-2.33-23.84-6.33-4.88-2.8-8.38-6.76-10.68-12.12-3.76-8.71-5.81-16.82-6.29-24.79-.29-4.83-.62-9.67-.95-14.49l-.4-5.88c-.07-14.29,1.79-26.95,5.71-38.65,4.48-13.42,12.79-21.15,26.15-24.36,15.29-3.67,31.18-3.71,48.59-.14,13.32,2.73,21.41,12.21,24.75,28.97,2.89,14.56,3.81,28.77,2.75,42.23h.01Z"/>
        <path class="cls-1" d="M1059,106.01c.06-18.58.13-37.81-2.57-56.87-3.35-23.74-18.61-39.44-42.97-44.21-7.96-1.56-16.43-2.51-25.16-2.83-15.27-.56-34.29-1.27-52.58-.81-9.83.23-19.65,1.36-29.14,2.44-3.29.38-6.59.75-9.9,1.1-8.03.84-14.58,1.69-20.59,2.7-9.03,1.52-11.65,4.62-11.65,13.81v183.41c0,11.82,6.42,13.47,13.34,13.48,5.45.01,10.89,0,16.34,0h6.72c11.59,0,14.58-3.05,14.58-14.78v-32.24c0-36.83,0-73.67.06-110.5,0-2.49.32-5.06.65-7.8.14-1.23.3-2.44.43-3.79,1.78-.27,3.55-.62,5.32-.95,3.93-.75,7.63-1.46,11.18-1.49,4.26-.03,8.51-.14,12.77-.25,14.45-.39,28.09-.74,41.7,1.88,13.26,2.54,16.02,9.02,16.96,14.35,2.04,11.7,3.14,21.86,3.35,31.08.36,15.33.29,30.98.22,46.12-.03,6.42-.06,12.83-.06,19.25v11.99c0,10.17-.03,20.34.04,30.52.09,11.73,4.97,16.56,16.88,16.62,2.76,0,5.5.01,8.26.01h12.11c8.87-.01,13.68-2.24,13.68-13.9v-24.3c.03-20.52.06-41.03-.03-61.55-.01-4.16,0-8.32,0-12.5h.04Z"/>
        <path class="cls-1" d="M826.08,3.27c-6.26-.04-12.51-.03-18.77-.01h-3.63c-10.95.01-14.29,3.4-14.29,14.42v138.95c0,2.46-.07,4.41-.25,6.14-.53,5.74-1.27,6.24-6.08,7.2-4.54.9-9.22,1.29-14.17,1.69l-1.81.14c-14.54,1.21-30.08,1.98-45.17-.77-15.52-2.82-24.06-13.15-24.03-29.07.06-29.55.03-59.08,0-88.63l-.03-32.5c0-1.13,0-2.4-.16-3.74-1-8.81-5.49-13.12-14.15-13.54-5.84-.29-11.72-.29-17.41-.29h-4.75c-4.19,0-7.93.19-10.72,2.98-2.79,2.77-3.01,6.46-3.01,10.62v37.29c0,27.03.03,54.07-.06,81.09-.04,16.1,1.05,28.44,3.6,40.01,2.59,11.86,9.04,21.31,19.16,28.07,13.22,8.84,28.96,13.34,49.49,14.13,9.65.38,19.9.78,30.43.78,12.48,0,25.39-.56,38.22-2.38,5.59-.79,11.2-1.49,16.8-2.2,7.25-.91,14.75-1.83,22.14-2.98,10.4-1.6,12.43-6.83,12.43-15.32V17.12c0-9.77-4.02-13.77-13.81-13.84h.03Z"/>
      </g>
    </g>
  </g>
</svg>